<mxfile host="app.diagrams.net" modified="2022-03-04T13:13:22.534Z" agent="5.0 (Windows NT 10.0; Win64; x64) AppleWebKit/537.36 (KHTML, like Gecko) Chrome/98.0.4758.102 Safari/537.36" etag="2WtBvWeoFhUZARtPgbqj" version="16.6.4" type="github">
  <diagram id="2UTTNxUxBbOtGR4CEYOI" name="Page-1">
    <mxGraphModel dx="1422" dy="794" grid="1" gridSize="10" guides="1" tooltips="1" connect="1" arrows="1" fold="1" page="1" pageScale="1" pageWidth="850" pageHeight="1100" background="#FFFFFF" math="0" shadow="0">
      <root>
        <mxCell id="0" />
        <mxCell id="1" parent="0" />
        <mxCell id="6vVe3XF6WJL3B-fU9FkF-1" value="User" style="rounded=0;whiteSpace=wrap;html=1;fillColor=#1ba1e2;fontColor=#000000;strokeColor=#006EAF;fontSize=16;" parent="1" vertex="1">
          <mxGeometry x="120" y="360" width="80" height="40" as="geometry" />
        </mxCell>
        <mxCell id="6vVe3XF6WJL3B-fU9FkF-2" value="Views" style="rhombus;whiteSpace=wrap;html=1;fillColor=#e51400;strokeColor=#B20000;fontColor=#ffffff;fontSize=16;" parent="1" vertex="1">
          <mxGeometry x="320" y="360" width="160" height="40" as="geometry" />
        </mxCell>
        <mxCell id="6vVe3XF6WJL3B-fU9FkF-3" value="Email" style="ellipse;whiteSpace=wrap;html=1;fillColor=#60a917;fontColor=#FFFF99;strokeColor=#2D7600;fontSize=16;" parent="1" vertex="1">
          <mxGeometry x="10" y="360" width="80" height="40" as="geometry" />
        </mxCell>
        <mxCell id="6vVe3XF6WJL3B-fU9FkF-4" value="Product" style="rounded=0;whiteSpace=wrap;html=1;fillColor=#1ba1e2;fontColor=#000000;strokeColor=#006EAF;fontSize=16;" parent="1" vertex="1">
          <mxGeometry x="600" y="360" width="80" height="40" as="geometry" />
        </mxCell>
        <mxCell id="6vVe3XF6WJL3B-fU9FkF-5" value="Cart" style="rounded=0;whiteSpace=wrap;html=1;fillColor=#1ba1e2;fontColor=#000000;strokeColor=#006EAF;fontSize=16;" parent="1" vertex="1">
          <mxGeometry x="600" y="680" width="80" height="40" as="geometry" />
        </mxCell>
        <mxCell id="6vVe3XF6WJL3B-fU9FkF-6" value="Order" style="rounded=0;whiteSpace=wrap;html=1;fillColor=#1ba1e2;fontColor=#000000;strokeColor=#006EAF;fontSize=16;" parent="1" vertex="1">
          <mxGeometry x="120" y="680" width="80" height="40" as="geometry" />
        </mxCell>
        <mxCell id="6vVe3XF6WJL3B-fU9FkF-11" value="Added To" style="rhombus;whiteSpace=wrap;html=1;fillColor=#e51400;fontColor=#ffffff;strokeColor=#B20000;fontSize=15;" parent="1" vertex="1">
          <mxGeometry x="600" y="510" width="80" height="80" as="geometry" />
        </mxCell>
        <mxCell id="6vVe3XF6WJL3B-fU9FkF-16" value="" style="endArrow=none;html=1;rounded=0;entryX=0;entryY=0.5;entryDx=0;entryDy=0;exitX=1;exitY=0.5;exitDx=0;exitDy=0;" parent="1" source="6vVe3XF6WJL3B-fU9FkF-17" target="6vVe3XF6WJL3B-fU9FkF-5" edge="1">
          <mxGeometry width="50" height="50" relative="1" as="geometry">
            <mxPoint x="570" y="540" as="sourcePoint" />
            <mxPoint x="440" y="410" as="targetPoint" />
          </mxGeometry>
        </mxCell>
        <mxCell id="6vVe3XF6WJL3B-fU9FkF-17" value="Product in cart&lt;br style=&quot;font-size: 12px;&quot;&gt;belongs to" style="rhombus;whiteSpace=wrap;html=1;fillColor=#e51400;fontColor=#FFFFFF;strokeColor=#B20000;fontSize=12;" parent="1" vertex="1">
          <mxGeometry x="320" y="670" width="160" height="60" as="geometry" />
        </mxCell>
        <mxCell id="6vVe3XF6WJL3B-fU9FkF-18" value="" style="endArrow=none;html=1;rounded=0;entryX=0;entryY=0.5;entryDx=0;entryDy=0;exitX=1;exitY=0.5;exitDx=0;exitDy=0;" parent="1" source="6vVe3XF6WJL3B-fU9FkF-6" target="6vVe3XF6WJL3B-fU9FkF-17" edge="1">
          <mxGeometry width="50" height="50" relative="1" as="geometry">
            <mxPoint x="390" y="460" as="sourcePoint" />
            <mxPoint x="440" y="410" as="targetPoint" />
          </mxGeometry>
        </mxCell>
        <mxCell id="6vVe3XF6WJL3B-fU9FkF-19" value="Check Out" style="rhombus;whiteSpace=wrap;html=1;fillColor=#e51400;fontColor=#FFFFFF;strokeColor=#B20000;fontSize=16;" parent="1" vertex="1">
          <mxGeometry x="340" y="740" width="120" height="90" as="geometry" />
        </mxCell>
        <mxCell id="6vVe3XF6WJL3B-fU9FkF-22" value="" style="endArrow=none;html=1;rounded=0;fontSize=16;fontColor=#FFFF99;exitX=0;exitY=0.5;exitDx=0;exitDy=0;entryX=1;entryY=0.5;entryDx=0;entryDy=0;" parent="1" source="6vVe3XF6WJL3B-fU9FkF-1" target="6vVe3XF6WJL3B-fU9FkF-3" edge="1">
          <mxGeometry width="50" height="50" relative="1" as="geometry">
            <mxPoint x="390" y="460" as="sourcePoint" />
            <mxPoint x="440" y="410" as="targetPoint" />
          </mxGeometry>
        </mxCell>
        <mxCell id="6vVe3XF6WJL3B-fU9FkF-23" value="Password" style="ellipse;whiteSpace=wrap;html=1;fontSize=16;fontColor=#ffffff;fillColor=#60a917;strokeColor=#2D7600;" parent="1" vertex="1">
          <mxGeometry x="20" y="290" width="90" height="40" as="geometry" />
        </mxCell>
        <mxCell id="6vVe3XF6WJL3B-fU9FkF-24" value="" style="endArrow=none;html=1;rounded=0;fontSize=16;fontColor=#FFFF99;exitX=1;exitY=1;exitDx=0;exitDy=0;entryX=0;entryY=0;entryDx=0;entryDy=0;" parent="1" source="6vVe3XF6WJL3B-fU9FkF-23" target="6vVe3XF6WJL3B-fU9FkF-1" edge="1">
          <mxGeometry width="50" height="50" relative="1" as="geometry">
            <mxPoint x="390" y="460" as="sourcePoint" />
            <mxPoint x="440" y="410" as="targetPoint" />
          </mxGeometry>
        </mxCell>
        <mxCell id="6vVe3XF6WJL3B-fU9FkF-25" value="Category" style="rounded=0;whiteSpace=wrap;html=1;fontSize=16;fontColor=#000000;fillColor=#1ba1e2;strokeColor=#006EAF;" parent="1" vertex="1">
          <mxGeometry x="360" y="160" width="80" height="40" as="geometry" />
        </mxCell>
        <mxCell id="6vVe3XF6WJL3B-fU9FkF-30" value="Adds" style="rhombus;whiteSpace=wrap;html=1;fontSize=16;fontColor=#ffffff;fillColor=#e51400;strokeColor=#B20000;" parent="1" vertex="1">
          <mxGeometry x="210" y="230" width="100" height="70" as="geometry" />
        </mxCell>
        <mxCell id="6vVe3XF6WJL3B-fU9FkF-31" value="Belongs to" style="rhombus;whiteSpace=wrap;html=1;fontSize=16;fontColor=#ffffff;fillColor=#e51400;strokeColor=#B20000;" parent="1" vertex="1">
          <mxGeometry x="470" y="230" width="100" height="70" as="geometry" />
        </mxCell>
        <mxCell id="6vVe3XF6WJL3B-fU9FkF-37" value="" style="endArrow=none;html=1;rounded=0;fontSize=16;fontColor=#000000;exitX=0.5;exitY=0;exitDx=0;exitDy=0;entryX=0;entryY=1;entryDx=0;entryDy=0;startArrow=none;" parent="1" source="6vVe3XF6WJL3B-fU9FkF-43" target="6vVe3XF6WJL3B-fU9FkF-30" edge="1">
          <mxGeometry relative="1" as="geometry">
            <mxPoint x="340" y="430" as="sourcePoint" />
            <mxPoint x="500" y="430" as="targetPoint" />
          </mxGeometry>
        </mxCell>
        <mxCell id="6vVe3XF6WJL3B-fU9FkF-38" value="1" style="resizable=0;html=1;align=right;verticalAlign=bottom;fontSize=16;fontColor=#000000;" parent="6vVe3XF6WJL3B-fU9FkF-37" connectable="0" vertex="1">
          <mxGeometry x="1" relative="1" as="geometry">
            <mxPoint x="-25" y="28" as="offset" />
          </mxGeometry>
        </mxCell>
        <mxCell id="6vVe3XF6WJL3B-fU9FkF-43" value="Admin" style="text;strokeColor=none;fillColor=none;spacingLeft=4;spacingRight=4;overflow=hidden;rotatable=0;points=[[0,0.5],[1,0.5]];portConstraint=eastwest;fontSize=12;fontColor=#000000;" parent="1" vertex="1">
          <mxGeometry x="170" y="320" width="50" height="20" as="geometry" />
        </mxCell>
        <mxCell id="6vVe3XF6WJL3B-fU9FkF-44" value="" style="endArrow=none;html=1;rounded=0;fontSize=16;fontColor=#000000;exitX=0.5;exitY=0;exitDx=0;exitDy=0;" parent="1" source="6vVe3XF6WJL3B-fU9FkF-1" edge="1">
          <mxGeometry relative="1" as="geometry">
            <mxPoint x="200" y="200" as="sourcePoint" />
            <mxPoint x="180" y="340" as="targetPoint" />
          </mxGeometry>
        </mxCell>
        <mxCell id="6vVe3XF6WJL3B-fU9FkF-48" value="" style="endArrow=none;html=1;rounded=0;fontSize=16;fontColor=#000000;exitX=1;exitY=0;exitDx=0;exitDy=0;entryX=0;entryY=0.5;entryDx=0;entryDy=0;" parent="1" source="6vVe3XF6WJL3B-fU9FkF-30" target="6vVe3XF6WJL3B-fU9FkF-25" edge="1">
          <mxGeometry relative="1" as="geometry">
            <mxPoint x="350" y="430" as="sourcePoint" />
            <mxPoint x="510" y="430" as="targetPoint" />
          </mxGeometry>
        </mxCell>
        <mxCell id="6vVe3XF6WJL3B-fU9FkF-49" value="N" style="resizable=0;html=1;align=right;verticalAlign=bottom;fontSize=16;fontColor=#000000;" parent="6vVe3XF6WJL3B-fU9FkF-48" connectable="0" vertex="1">
          <mxGeometry x="1" relative="1" as="geometry">
            <mxPoint x="-30" y="30" as="offset" />
          </mxGeometry>
        </mxCell>
        <mxCell id="6vVe3XF6WJL3B-fU9FkF-50" value="" style="endArrow=none;html=1;rounded=0;fontSize=16;fontColor=#000000;entryX=0.5;entryY=0;entryDx=0;entryDy=0;exitX=1;exitY=1;exitDx=0;exitDy=0;" parent="1" source="6vVe3XF6WJL3B-fU9FkF-31" target="6vVe3XF6WJL3B-fU9FkF-4" edge="1">
          <mxGeometry relative="1" as="geometry">
            <mxPoint x="350" y="430" as="sourcePoint" />
            <mxPoint x="510" y="430" as="targetPoint" />
          </mxGeometry>
        </mxCell>
        <mxCell id="6vVe3XF6WJL3B-fU9FkF-54" value="" style="endArrow=none;html=1;rounded=0;fontSize=16;fontColor=#000000;exitX=0;exitY=0;exitDx=0;exitDy=0;entryX=1;entryY=1;entryDx=0;entryDy=0;" parent="1" source="6vVe3XF6WJL3B-fU9FkF-31" target="6vVe3XF6WJL3B-fU9FkF-25" edge="1">
          <mxGeometry relative="1" as="geometry">
            <mxPoint x="350" y="430" as="sourcePoint" />
            <mxPoint x="510" y="430" as="targetPoint" />
          </mxGeometry>
        </mxCell>
        <mxCell id="6vVe3XF6WJL3B-fU9FkF-56" value="Role" style="ellipse;whiteSpace=wrap;html=1;fontSize=15;fontColor=#FFFFFF;fillColor=#60a917;strokeColor=#2D7600;" parent="1" vertex="1">
          <mxGeometry x="120" y="240" width="80" height="40" as="geometry" />
        </mxCell>
        <mxCell id="6vVe3XF6WJL3B-fU9FkF-62" value="" style="endArrow=none;html=1;rounded=0;fontSize=12;fontColor=#FFFFFF;exitX=0.5;exitY=0;exitDx=0;exitDy=0;entryX=0.5;entryY=1;entryDx=0;entryDy=0;startArrow=none;" parent="1" source="6vVe3XF6WJL3B-fU9FkF-63" target="6vVe3XF6WJL3B-fU9FkF-56" edge="1">
          <mxGeometry relative="1" as="geometry">
            <mxPoint x="350" y="420" as="sourcePoint" />
            <mxPoint x="510" y="420" as="targetPoint" />
          </mxGeometry>
        </mxCell>
        <mxCell id="6vVe3XF6WJL3B-fU9FkF-63" value="Admin" style="text;html=1;strokeColor=none;fillColor=none;align=center;verticalAlign=middle;whiteSpace=wrap;rounded=0;fontSize=12;fontColor=#000000;" parent="1" vertex="1">
          <mxGeometry x="130" y="300" width="60" height="30" as="geometry" />
        </mxCell>
        <mxCell id="6vVe3XF6WJL3B-fU9FkF-64" value="" style="endArrow=none;html=1;rounded=0;fontSize=12;fontColor=#FFFFFF;exitX=0.5;exitY=0;exitDx=0;exitDy=0;entryX=0.5;entryY=1;entryDx=0;entryDy=0;" parent="1" source="6vVe3XF6WJL3B-fU9FkF-1" target="6vVe3XF6WJL3B-fU9FkF-63" edge="1">
          <mxGeometry relative="1" as="geometry">
            <mxPoint x="160" y="359.9999999999998" as="sourcePoint" />
            <mxPoint x="120" y="280.0000000000002" as="targetPoint" />
          </mxGeometry>
        </mxCell>
        <mxCell id="6vVe3XF6WJL3B-fU9FkF-65" value="Color" style="ellipse;whiteSpace=wrap;html=1;fontSize=16;fontColor=#ffffff;fillColor=#60a917;strokeColor=#2D7600;" parent="1" vertex="1">
          <mxGeometry x="740" y="690" width="80" height="40" as="geometry" />
        </mxCell>
        <mxCell id="6vVe3XF6WJL3B-fU9FkF-66" value="" style="endArrow=none;html=1;rounded=0;fontSize=16;fontColor=#FFFFFF;exitX=1;exitY=0.5;exitDx=0;exitDy=0;entryX=0;entryY=0.5;entryDx=0;entryDy=0;" parent="1" source="6vVe3XF6WJL3B-fU9FkF-5" target="6vVe3XF6WJL3B-fU9FkF-65" edge="1">
          <mxGeometry width="50" height="50" relative="1" as="geometry">
            <mxPoint x="400" y="450" as="sourcePoint" />
            <mxPoint x="450" y="400" as="targetPoint" />
          </mxGeometry>
        </mxCell>
        <mxCell id="6vVe3XF6WJL3B-fU9FkF-67" value="Quantity" style="ellipse;whiteSpace=wrap;html=1;fontSize=16;fontColor=#FFFFFF;fillColor=#60a917;strokeColor=#2D7600;" parent="1" vertex="1">
          <mxGeometry x="720" y="740" width="80" height="40" as="geometry" />
        </mxCell>
        <mxCell id="6vVe3XF6WJL3B-fU9FkF-68" value="" style="endArrow=none;html=1;rounded=0;fontSize=16;fontColor=#FFFFFF;exitX=1;exitY=1;exitDx=0;exitDy=0;entryX=0;entryY=0;entryDx=0;entryDy=0;" parent="1" source="6vVe3XF6WJL3B-fU9FkF-5" target="6vVe3XF6WJL3B-fU9FkF-67" edge="1">
          <mxGeometry width="50" height="50" relative="1" as="geometry">
            <mxPoint x="400" y="450" as="sourcePoint" />
            <mxPoint x="450" y="400" as="targetPoint" />
          </mxGeometry>
        </mxCell>
        <mxCell id="6vVe3XF6WJL3B-fU9FkF-69" value="Size" style="ellipse;whiteSpace=wrap;html=1;fontSize=16;fontColor=#ffffff;fillColor=#60a917;strokeColor=#2D7600;" parent="1" vertex="1">
          <mxGeometry x="650" y="770" width="70" height="40" as="geometry" />
        </mxCell>
        <mxCell id="6vVe3XF6WJL3B-fU9FkF-70" value="" style="endArrow=none;html=1;rounded=0;fontSize=16;fontColor=#FFFFFF;exitX=0.75;exitY=1;exitDx=0;exitDy=0;entryX=0.5;entryY=0;entryDx=0;entryDy=0;" parent="1" source="6vVe3XF6WJL3B-fU9FkF-5" target="6vVe3XF6WJL3B-fU9FkF-69" edge="1">
          <mxGeometry width="50" height="50" relative="1" as="geometry">
            <mxPoint x="400" y="450" as="sourcePoint" />
            <mxPoint x="710" y="790" as="targetPoint" />
          </mxGeometry>
        </mxCell>
        <mxCell id="6vVe3XF6WJL3B-fU9FkF-71" value="Product ID" style="ellipse;whiteSpace=wrap;html=1;fontSize=16;fontColor=#ffffff;fillColor=#60a917;strokeColor=#2D7600;" parent="1" vertex="1">
          <mxGeometry x="730" y="640" width="100" height="40" as="geometry" />
        </mxCell>
        <mxCell id="6vVe3XF6WJL3B-fU9FkF-72" value="" style="endArrow=none;html=1;rounded=0;fontSize=16;fontColor=#FFFFFF;exitX=0;exitY=0.5;exitDx=0;exitDy=0;" parent="1" source="6vVe3XF6WJL3B-fU9FkF-71" edge="1">
          <mxGeometry width="50" height="50" relative="1" as="geometry">
            <mxPoint x="400" y="450" as="sourcePoint" />
            <mxPoint x="680" y="690" as="targetPoint" />
          </mxGeometry>
        </mxCell>
        <mxCell id="6vVe3XF6WJL3B-fU9FkF-73" value="Order ID" style="ellipse;whiteSpace=wrap;html=1;fontSize=16;fontColor=#ffffff;fillColor=#60a917;strokeColor=#2D7600;" parent="1" vertex="1">
          <mxGeometry x="690" y="590" width="100" height="40" as="geometry" />
        </mxCell>
        <mxCell id="6vVe3XF6WJL3B-fU9FkF-74" value="" style="endArrow=none;html=1;rounded=0;fontSize=16;fontColor=#FFFFFF;exitX=1;exitY=0;exitDx=0;exitDy=0;entryX=0;entryY=1;entryDx=0;entryDy=0;" parent="1" source="6vVe3XF6WJL3B-fU9FkF-5" target="6vVe3XF6WJL3B-fU9FkF-73" edge="1">
          <mxGeometry width="50" height="50" relative="1" as="geometry">
            <mxPoint x="400" y="450" as="sourcePoint" />
            <mxPoint x="450" y="400" as="targetPoint" />
          </mxGeometry>
        </mxCell>
        <mxCell id="6vVe3XF6WJL3B-fU9FkF-79" value="" style="endArrow=none;html=1;rounded=0;fontSize=16;fontColor=#000000;entryX=0.5;entryY=0;entryDx=0;entryDy=0;exitX=0.5;exitY=1;exitDx=0;exitDy=0;" parent="1" source="6vVe3XF6WJL3B-fU9FkF-4" target="6vVe3XF6WJL3B-fU9FkF-11" edge="1">
          <mxGeometry relative="1" as="geometry">
            <mxPoint x="350" y="540" as="sourcePoint" />
            <mxPoint x="510" y="540" as="targetPoint" />
          </mxGeometry>
        </mxCell>
        <mxCell id="6vVe3XF6WJL3B-fU9FkF-80" value="N" style="resizable=0;html=1;align=right;verticalAlign=bottom;fontSize=16;fontColor=#000000;" parent="6vVe3XF6WJL3B-fU9FkF-79" connectable="0" vertex="1">
          <mxGeometry x="1" relative="1" as="geometry">
            <mxPoint x="-10" y="-51" as="offset" />
          </mxGeometry>
        </mxCell>
        <mxCell id="6vVe3XF6WJL3B-fU9FkF-81" value="" style="endArrow=none;html=1;rounded=0;fontSize=16;fontColor=#000000;entryX=0.5;entryY=0;entryDx=0;entryDy=0;exitX=0.5;exitY=1;exitDx=0;exitDy=0;" parent="1" source="6vVe3XF6WJL3B-fU9FkF-11" target="6vVe3XF6WJL3B-fU9FkF-5" edge="1">
          <mxGeometry relative="1" as="geometry">
            <mxPoint x="350" y="540" as="sourcePoint" />
            <mxPoint x="510" y="540" as="targetPoint" />
          </mxGeometry>
        </mxCell>
        <mxCell id="6vVe3XF6WJL3B-fU9FkF-82" value="N" style="resizable=0;html=1;align=right;verticalAlign=bottom;fontSize=16;fontColor=#000000;" parent="6vVe3XF6WJL3B-fU9FkF-81" connectable="0" vertex="1">
          <mxGeometry x="1" relative="1" as="geometry">
            <mxPoint x="-10" y="-21" as="offset" />
          </mxGeometry>
        </mxCell>
        <mxCell id="6vVe3XF6WJL3B-fU9FkF-83" value="" style="endArrow=none;html=1;rounded=0;fontSize=16;fontColor=#000000;exitX=1;exitY=0.5;exitDx=0;exitDy=0;entryX=0;entryY=0.5;entryDx=0;entryDy=0;" parent="1" source="6vVe3XF6WJL3B-fU9FkF-1" target="6vVe3XF6WJL3B-fU9FkF-2" edge="1">
          <mxGeometry relative="1" as="geometry">
            <mxPoint x="350" y="540" as="sourcePoint" />
            <mxPoint x="510" y="540" as="targetPoint" />
          </mxGeometry>
        </mxCell>
        <mxCell id="6vVe3XF6WJL3B-fU9FkF-84" value="1" style="resizable=0;html=1;align=right;verticalAlign=bottom;fontSize=16;fontColor=#000000;" parent="6vVe3XF6WJL3B-fU9FkF-83" connectable="0" vertex="1">
          <mxGeometry x="1" relative="1" as="geometry">
            <mxPoint x="-40" as="offset" />
          </mxGeometry>
        </mxCell>
        <mxCell id="6vVe3XF6WJL3B-fU9FkF-85" value="" style="endArrow=none;html=1;rounded=0;fontSize=16;fontColor=#000000;exitX=1;exitY=0.5;exitDx=0;exitDy=0;entryX=0;entryY=0.5;entryDx=0;entryDy=0;" parent="1" source="6vVe3XF6WJL3B-fU9FkF-2" target="6vVe3XF6WJL3B-fU9FkF-4" edge="1">
          <mxGeometry relative="1" as="geometry">
            <mxPoint x="350" y="540" as="sourcePoint" />
            <mxPoint x="510" y="540" as="targetPoint" />
          </mxGeometry>
        </mxCell>
        <mxCell id="6vVe3XF6WJL3B-fU9FkF-86" value="N" style="resizable=0;html=1;align=right;verticalAlign=bottom;fontSize=16;fontColor=#000000;" parent="6vVe3XF6WJL3B-fU9FkF-85" connectable="0" vertex="1">
          <mxGeometry x="1" relative="1" as="geometry">
            <mxPoint x="-40" as="offset" />
          </mxGeometry>
        </mxCell>
        <mxCell id="6vVe3XF6WJL3B-fU9FkF-87" value="Views" style="rhombus;whiteSpace=wrap;html=1;fontSize=16;fontColor=#ffffff;fillColor=#e51400;strokeColor=#B20000;" parent="1" vertex="1">
          <mxGeometry x="160" y="480" width="80" height="80" as="geometry" />
        </mxCell>
        <mxCell id="6vVe3XF6WJL3B-fU9FkF-88" value="Place" style="rhombus;whiteSpace=wrap;html=1;fontSize=16;fontColor=#ffffff;fillColor=#e51400;strokeColor=#B20000;" parent="1" vertex="1">
          <mxGeometry x="80" y="480" width="80" height="80" as="geometry" />
        </mxCell>
        <mxCell id="6vVe3XF6WJL3B-fU9FkF-89" value="" style="endArrow=none;html=1;rounded=0;fontSize=16;fontColor=#000000;exitX=0.5;exitY=1;exitDx=0;exitDy=0;entryX=0.5;entryY=0;entryDx=0;entryDy=0;startArrow=none;" parent="1" source="6vVe3XF6WJL3B-fU9FkF-97" target="6vVe3XF6WJL3B-fU9FkF-88" edge="1">
          <mxGeometry relative="1" as="geometry">
            <mxPoint x="50" y="540" as="sourcePoint" />
            <mxPoint x="210" y="540" as="targetPoint" />
          </mxGeometry>
        </mxCell>
        <mxCell id="6vVe3XF6WJL3B-fU9FkF-90" value="1" style="resizable=0;html=1;align=right;verticalAlign=bottom;fontSize=16;fontColor=#000000;" parent="6vVe3XF6WJL3B-fU9FkF-89" connectable="0" vertex="1">
          <mxGeometry x="1" relative="1" as="geometry">
            <mxPoint y="-10" as="offset" />
          </mxGeometry>
        </mxCell>
        <mxCell id="6vVe3XF6WJL3B-fU9FkF-91" value="" style="endArrow=none;html=1;rounded=0;fontSize=16;fontColor=#000000;exitX=0.5;exitY=1;exitDx=0;exitDy=0;entryX=0.5;entryY=0;entryDx=0;entryDy=0;startArrow=none;" parent="1" source="6vVe3XF6WJL3B-fU9FkF-93" target="6vVe3XF6WJL3B-fU9FkF-87" edge="1">
          <mxGeometry relative="1" as="geometry">
            <mxPoint x="50" y="540" as="sourcePoint" />
            <mxPoint x="210" y="540" as="targetPoint" />
          </mxGeometry>
        </mxCell>
        <mxCell id="6vVe3XF6WJL3B-fU9FkF-92" value="1" style="resizable=0;html=1;align=right;verticalAlign=bottom;fontSize=16;fontColor=#000000;" parent="6vVe3XF6WJL3B-fU9FkF-91" connectable="0" vertex="1">
          <mxGeometry x="1" relative="1" as="geometry">
            <mxPoint y="-10" as="offset" />
          </mxGeometry>
        </mxCell>
        <mxCell id="6vVe3XF6WJL3B-fU9FkF-93" value="Admin" style="text;html=1;strokeColor=none;fillColor=none;align=center;verticalAlign=middle;whiteSpace=wrap;rounded=0;fontSize=12;fontColor=#000000;" parent="1" vertex="1">
          <mxGeometry x="175" y="420" width="50" height="20" as="geometry" />
        </mxCell>
        <mxCell id="6vVe3XF6WJL3B-fU9FkF-94" value="" style="endArrow=none;html=1;rounded=0;fontSize=16;fontColor=#000000;exitX=1;exitY=1;exitDx=0;exitDy=0;entryX=0.5;entryY=0;entryDx=0;entryDy=0;" parent="1" source="6vVe3XF6WJL3B-fU9FkF-1" target="6vVe3XF6WJL3B-fU9FkF-93" edge="1">
          <mxGeometry relative="1" as="geometry">
            <mxPoint x="179.99999999999955" y="399.9999999999998" as="sourcePoint" />
            <mxPoint x="240" y="410" as="targetPoint" />
          </mxGeometry>
        </mxCell>
        <mxCell id="6vVe3XF6WJL3B-fU9FkF-97" value="User" style="text;html=1;strokeColor=none;fillColor=none;align=center;verticalAlign=middle;whiteSpace=wrap;rounded=0;fontSize=12;fontColor=#000000;" parent="1" vertex="1">
          <mxGeometry x="90" y="420" width="60" height="20" as="geometry" />
        </mxCell>
        <mxCell id="6vVe3XF6WJL3B-fU9FkF-98" value="" style="endArrow=none;html=1;rounded=0;fontSize=16;fontColor=#000000;exitX=0;exitY=1;exitDx=0;exitDy=0;entryX=0.5;entryY=0;entryDx=0;entryDy=0;" parent="1" source="6vVe3XF6WJL3B-fU9FkF-1" target="6vVe3XF6WJL3B-fU9FkF-97" edge="1">
          <mxGeometry relative="1" as="geometry">
            <mxPoint x="139.99999999999955" y="399.9999999999998" as="sourcePoint" />
            <mxPoint x="130" y="420" as="targetPoint" />
          </mxGeometry>
        </mxCell>
        <mxCell id="6vVe3XF6WJL3B-fU9FkF-100" value="" style="endArrow=none;html=1;rounded=0;fontSize=12;fontColor=#000000;exitX=0.5;exitY=1;exitDx=0;exitDy=0;entryX=0;entryY=0;entryDx=0;entryDy=0;" parent="1" source="6vVe3XF6WJL3B-fU9FkF-88" target="6vVe3XF6WJL3B-fU9FkF-6" edge="1">
          <mxGeometry relative="1" as="geometry">
            <mxPoint x="50" y="420" as="sourcePoint" />
            <mxPoint x="210" y="420" as="targetPoint" />
          </mxGeometry>
        </mxCell>
        <mxCell id="6vVe3XF6WJL3B-fU9FkF-101" value="N" style="resizable=0;html=1;align=right;verticalAlign=bottom;fontSize=16;fontColor=#000000;" parent="6vVe3XF6WJL3B-fU9FkF-100" connectable="0" vertex="1">
          <mxGeometry x="1" relative="1" as="geometry">
            <mxPoint y="-90" as="offset" />
          </mxGeometry>
        </mxCell>
        <mxCell id="6vVe3XF6WJL3B-fU9FkF-102" value="" style="endArrow=none;html=1;rounded=0;fontSize=16;fontColor=#000000;exitX=0.5;exitY=1;exitDx=0;exitDy=0;entryX=1;entryY=0;entryDx=0;entryDy=0;" parent="1" source="6vVe3XF6WJL3B-fU9FkF-87" target="6vVe3XF6WJL3B-fU9FkF-6" edge="1">
          <mxGeometry relative="1" as="geometry">
            <mxPoint x="50" y="420" as="sourcePoint" />
            <mxPoint x="210" y="420" as="targetPoint" />
          </mxGeometry>
        </mxCell>
        <mxCell id="6vVe3XF6WJL3B-fU9FkF-103" value="N" style="resizable=0;html=1;align=right;verticalAlign=bottom;fontSize=16;fontColor=#000000;" parent="6vVe3XF6WJL3B-fU9FkF-102" connectable="0" vertex="1">
          <mxGeometry x="1" relative="1" as="geometry">
            <mxPoint x="-5" y="-90" as="offset" />
          </mxGeometry>
        </mxCell>
        <mxCell id="6vVe3XF6WJL3B-fU9FkF-112" value="" style="endArrow=none;html=1;rounded=0;fontSize=16;fontColor=#000000;exitX=1;exitY=1;exitDx=0;exitDy=0;entryX=0;entryY=0.5;entryDx=0;entryDy=0;" parent="1" source="6vVe3XF6WJL3B-fU9FkF-6" target="6vVe3XF6WJL3B-fU9FkF-19" edge="1">
          <mxGeometry relative="1" as="geometry">
            <mxPoint x="70" y="460" as="sourcePoint" />
            <mxPoint x="230" y="460" as="targetPoint" />
          </mxGeometry>
        </mxCell>
        <mxCell id="6vVe3XF6WJL3B-fU9FkF-113" value="1" style="resizable=0;html=1;align=right;verticalAlign=bottom;fontSize=16;fontColor=#000000;" parent="6vVe3XF6WJL3B-fU9FkF-112" connectable="0" vertex="1">
          <mxGeometry x="1" relative="1" as="geometry">
            <mxPoint y="-5" as="offset" />
          </mxGeometry>
        </mxCell>
        <mxCell id="6vVe3XF6WJL3B-fU9FkF-114" value="Price" style="ellipse;whiteSpace=wrap;html=1;fontSize=16;fontColor=#ffffff;fillColor=#60a917;strokeColor=#2D7600;" parent="1" vertex="1">
          <mxGeometry x="650" y="440" width="70" height="30" as="geometry" />
        </mxCell>
        <mxCell id="6vVe3XF6WJL3B-fU9FkF-115" value="" style="endArrow=none;html=1;rounded=0;fontSize=16;fontColor=#000000;entryX=0.75;entryY=1;entryDx=0;entryDy=0;exitX=0.5;exitY=0;exitDx=0;exitDy=0;" parent="1" source="6vVe3XF6WJL3B-fU9FkF-114" target="6vVe3XF6WJL3B-fU9FkF-4" edge="1">
          <mxGeometry width="50" height="50" relative="1" as="geometry">
            <mxPoint x="430" y="490" as="sourcePoint" />
            <mxPoint x="480" y="440" as="targetPoint" />
          </mxGeometry>
        </mxCell>
        <mxCell id="6vVe3XF6WJL3B-fU9FkF-116" value="Color" style="ellipse;whiteSpace=wrap;html=1;fontSize=16;fontColor=#ffffff;fillColor=#60a917;strokeColor=#2D7600;" parent="1" vertex="1">
          <mxGeometry x="710" y="420" width="70" height="30" as="geometry" />
        </mxCell>
        <mxCell id="6vVe3XF6WJL3B-fU9FkF-117" value="" style="endArrow=none;html=1;rounded=0;fontSize=16;fontColor=#000000;entryX=1;entryY=1;entryDx=0;entryDy=0;exitX=0;exitY=0;exitDx=0;exitDy=0;" parent="1" source="6vVe3XF6WJL3B-fU9FkF-116" target="6vVe3XF6WJL3B-fU9FkF-4" edge="1">
          <mxGeometry width="50" height="50" relative="1" as="geometry">
            <mxPoint x="430" y="490" as="sourcePoint" />
            <mxPoint x="480" y="440" as="targetPoint" />
          </mxGeometry>
        </mxCell>
        <mxCell id="6vVe3XF6WJL3B-fU9FkF-118" value="Brand" style="ellipse;whiteSpace=wrap;html=1;fontSize=16;fontColor=#ffffff;fillColor=#60a917;strokeColor=#2D7600;" parent="1" vertex="1">
          <mxGeometry x="730" y="380" width="70" height="30" as="geometry" />
        </mxCell>
        <mxCell id="6vVe3XF6WJL3B-fU9FkF-119" value="" style="endArrow=none;html=1;rounded=0;fontSize=16;fontColor=#000000;entryX=1;entryY=0.5;entryDx=0;entryDy=0;exitX=0;exitY=0.5;exitDx=0;exitDy=0;" parent="1" source="6vVe3XF6WJL3B-fU9FkF-118" target="6vVe3XF6WJL3B-fU9FkF-4" edge="1">
          <mxGeometry width="50" height="50" relative="1" as="geometry">
            <mxPoint x="430" y="490" as="sourcePoint" />
            <mxPoint x="480" y="440" as="targetPoint" />
          </mxGeometry>
        </mxCell>
        <mxCell id="6vVe3XF6WJL3B-fU9FkF-120" value="Image" style="ellipse;whiteSpace=wrap;html=1;fontSize=16;fontColor=#ffffff;fillColor=#60a917;strokeColor=#2D7600;" parent="1" vertex="1">
          <mxGeometry x="730" y="340" width="75" height="30" as="geometry" />
        </mxCell>
        <mxCell id="6vVe3XF6WJL3B-fU9FkF-121" value="Product Description" style="ellipse;whiteSpace=wrap;html=1;fontSize=16;fontColor=#ffffff;fillColor=#60a917;strokeColor=#2D7600;" parent="1" vertex="1">
          <mxGeometry x="470" y="420" width="120" height="50" as="geometry" />
        </mxCell>
        <mxCell id="6vVe3XF6WJL3B-fU9FkF-122" value="" style="endArrow=none;html=1;rounded=0;fontSize=16;fontColor=#000000;entryX=0;entryY=1;entryDx=0;entryDy=0;exitX=1;exitY=0;exitDx=0;exitDy=0;" parent="1" source="6vVe3XF6WJL3B-fU9FkF-121" target="6vVe3XF6WJL3B-fU9FkF-4" edge="1">
          <mxGeometry width="50" height="50" relative="1" as="geometry">
            <mxPoint x="430" y="480" as="sourcePoint" />
            <mxPoint x="480" y="430" as="targetPoint" />
          </mxGeometry>
        </mxCell>
        <mxCell id="6vVe3XF6WJL3B-fU9FkF-123" value="Product Name" style="ellipse;whiteSpace=wrap;html=1;fontSize=16;fontColor=#ffffff;fillColor=#60a917;strokeColor=#2D7600;" parent="1" vertex="1">
          <mxGeometry x="680" y="280" width="100" height="50" as="geometry" />
        </mxCell>
        <mxCell id="6vVe3XF6WJL3B-fU9FkF-124" value="" style="endArrow=none;html=1;rounded=0;fontSize=16;fontColor=#000000;entryX=0;entryY=0.5;entryDx=0;entryDy=0;exitX=1;exitY=0.25;exitDx=0;exitDy=0;" parent="1" source="6vVe3XF6WJL3B-fU9FkF-4" target="6vVe3XF6WJL3B-fU9FkF-120" edge="1">
          <mxGeometry width="50" height="50" relative="1" as="geometry">
            <mxPoint x="430" y="480" as="sourcePoint" />
            <mxPoint x="480" y="430" as="targetPoint" />
          </mxGeometry>
        </mxCell>
        <mxCell id="6vVe3XF6WJL3B-fU9FkF-125" value="" style="endArrow=none;html=1;rounded=0;fontSize=16;fontColor=#000000;entryX=0;entryY=1;entryDx=0;entryDy=0;exitX=0.75;exitY=0;exitDx=0;exitDy=0;" parent="1" source="6vVe3XF6WJL3B-fU9FkF-4" target="6vVe3XF6WJL3B-fU9FkF-123" edge="1">
          <mxGeometry width="50" height="50" relative="1" as="geometry">
            <mxPoint x="620" y="370" as="sourcePoint" />
            <mxPoint x="670" y="320" as="targetPoint" />
          </mxGeometry>
        </mxCell>
        <mxCell id="6vVe3XF6WJL3B-fU9FkF-126" value="Product ID" style="ellipse;whiteSpace=wrap;html=1;fontSize=16;fontColor=#ffffff;fillColor=#60a917;strokeColor=#2D7600;" parent="1" vertex="1">
          <mxGeometry x="485" y="320" width="90" height="30" as="geometry" />
        </mxCell>
        <mxCell id="6vVe3XF6WJL3B-fU9FkF-127" value="" style="endArrow=none;html=1;rounded=0;fontSize=16;fontColor=#000000;entryX=1;entryY=0.5;entryDx=0;entryDy=0;exitX=0;exitY=0;exitDx=0;exitDy=0;" parent="1" source="6vVe3XF6WJL3B-fU9FkF-4" target="6vVe3XF6WJL3B-fU9FkF-126" edge="1">
          <mxGeometry width="50" height="50" relative="1" as="geometry">
            <mxPoint x="430" y="480" as="sourcePoint" />
            <mxPoint x="480" y="430" as="targetPoint" />
          </mxGeometry>
        </mxCell>
        <mxCell id="6vVe3XF6WJL3B-fU9FkF-128" value="Category ID" style="ellipse;whiteSpace=wrap;html=1;fontSize=16;fontColor=#ffffff;fillColor=#60a917;strokeColor=#2D7600;" parent="1" vertex="1">
          <mxGeometry x="575" y="260" width="100" height="40" as="geometry" />
        </mxCell>
        <mxCell id="6vVe3XF6WJL3B-fU9FkF-129" value="" style="endArrow=none;html=1;rounded=0;fontSize=16;fontColor=#000000;entryX=0.75;entryY=0;entryDx=0;entryDy=0;exitX=0.5;exitY=1;exitDx=0;exitDy=0;" parent="1" source="6vVe3XF6WJL3B-fU9FkF-128" target="6vVe3XF6WJL3B-fU9FkF-4" edge="1">
          <mxGeometry width="50" height="50" relative="1" as="geometry">
            <mxPoint x="430" y="480" as="sourcePoint" />
            <mxPoint x="480" y="430" as="targetPoint" />
          </mxGeometry>
        </mxCell>
        <mxCell id="6vVe3XF6WJL3B-fU9FkF-130" value="Category ID" style="ellipse;whiteSpace=wrap;html=1;fontSize=16;fontColor=#ffffff;fillColor=#60a917;strokeColor=#2D7600;" parent="1" vertex="1">
          <mxGeometry x="215" y="90" width="90" height="50" as="geometry" />
        </mxCell>
        <mxCell id="6vVe3XF6WJL3B-fU9FkF-131" value="" style="endArrow=none;html=1;rounded=0;fontSize=16;fontColor=#000000;exitX=0;exitY=0;exitDx=0;exitDy=0;entryX=1;entryY=1;entryDx=0;entryDy=0;" parent="1" source="6vVe3XF6WJL3B-fU9FkF-25" target="6vVe3XF6WJL3B-fU9FkF-130" edge="1">
          <mxGeometry width="50" height="50" relative="1" as="geometry">
            <mxPoint x="430" y="480" as="sourcePoint" />
            <mxPoint x="480" y="430" as="targetPoint" />
          </mxGeometry>
        </mxCell>
        <mxCell id="6vVe3XF6WJL3B-fU9FkF-132" value="Category Name" style="ellipse;whiteSpace=wrap;html=1;fontSize=16;fontColor=#ffffff;fillColor=#60a917;strokeColor=#2D7600;" parent="1" vertex="1">
          <mxGeometry x="340" y="70" width="120" height="60" as="geometry" />
        </mxCell>
        <mxCell id="6vVe3XF6WJL3B-fU9FkF-133" value="" style="endArrow=none;html=1;rounded=0;fontSize=16;fontColor=#000000;exitX=0.5;exitY=1;exitDx=0;exitDy=0;entryX=0.5;entryY=0;entryDx=0;entryDy=0;" parent="1" source="6vVe3XF6WJL3B-fU9FkF-132" target="6vVe3XF6WJL3B-fU9FkF-25" edge="1">
          <mxGeometry width="50" height="50" relative="1" as="geometry">
            <mxPoint x="430" y="480" as="sourcePoint" />
            <mxPoint x="480" y="430" as="targetPoint" />
          </mxGeometry>
        </mxCell>
        <mxCell id="6vVe3XF6WJL3B-fU9FkF-134" value="Category Description" style="ellipse;whiteSpace=wrap;html=1;fontSize=16;fontColor=#ffffff;fillColor=#60a917;strokeColor=#2D7600;" parent="1" vertex="1">
          <mxGeometry x="485" y="90" width="115" height="50" as="geometry" />
        </mxCell>
        <mxCell id="6vVe3XF6WJL3B-fU9FkF-135" value="" style="endArrow=none;html=1;rounded=0;fontSize=16;fontColor=#000000;exitX=1;exitY=0;exitDx=0;exitDy=0;entryX=0;entryY=1;entryDx=0;entryDy=0;" parent="1" source="6vVe3XF6WJL3B-fU9FkF-25" target="6vVe3XF6WJL3B-fU9FkF-134" edge="1">
          <mxGeometry width="50" height="50" relative="1" as="geometry">
            <mxPoint x="430" y="470" as="sourcePoint" />
            <mxPoint x="480" y="420" as="targetPoint" />
          </mxGeometry>
        </mxCell>
        <mxCell id="6vVe3XF6WJL3B-fU9FkF-136" value="Name" style="ellipse;whiteSpace=wrap;html=1;fontSize=16;fontColor=#ffffff;fillColor=#60a917;strokeColor=#2D7600;" parent="1" vertex="1">
          <mxGeometry x="125" y="620" width="70" height="30" as="geometry" />
        </mxCell>
        <mxCell id="6vVe3XF6WJL3B-fU9FkF-137" value="" style="endArrow=none;html=1;rounded=0;fontSize=16;fontColor=#000000;exitX=0.5;exitY=1;exitDx=0;exitDy=0;entryX=0.5;entryY=0;entryDx=0;entryDy=0;" parent="1" source="6vVe3XF6WJL3B-fU9FkF-136" target="6vVe3XF6WJL3B-fU9FkF-6" edge="1">
          <mxGeometry width="50" height="50" relative="1" as="geometry">
            <mxPoint x="430" y="470" as="sourcePoint" />
            <mxPoint x="480" y="420" as="targetPoint" />
          </mxGeometry>
        </mxCell>
        <mxCell id="6vVe3XF6WJL3B-fU9FkF-138" value="Email" style="ellipse;whiteSpace=wrap;html=1;fontSize=16;fontColor=#ffffff;fillColor=#60a917;strokeColor=#2D7600;" parent="1" vertex="1">
          <mxGeometry x="215" y="600" width="60" height="40" as="geometry" />
        </mxCell>
        <mxCell id="6vVe3XF6WJL3B-fU9FkF-139" value="" style="endArrow=none;html=1;rounded=0;fontSize=16;fontColor=#000000;exitX=0;exitY=1;exitDx=0;exitDy=0;entryX=1;entryY=0;entryDx=0;entryDy=0;" parent="1" source="6vVe3XF6WJL3B-fU9FkF-138" target="6vVe3XF6WJL3B-fU9FkF-6" edge="1">
          <mxGeometry width="50" height="50" relative="1" as="geometry">
            <mxPoint x="430" y="470" as="sourcePoint" />
            <mxPoint x="480" y="420" as="targetPoint" />
          </mxGeometry>
        </mxCell>
        <mxCell id="6vVe3XF6WJL3B-fU9FkF-140" value="Phone number" style="ellipse;whiteSpace=wrap;html=1;fontSize=16;fontColor=#ffffff;fillColor=#60a917;strokeColor=#2D7600;" parent="1" vertex="1">
          <mxGeometry x="50" y="750" width="110" height="50" as="geometry" />
        </mxCell>
        <mxCell id="6vVe3XF6WJL3B-fU9FkF-141" value="" style="endArrow=none;html=1;rounded=0;fontSize=16;fontColor=#000000;exitX=0.5;exitY=0;exitDx=0;exitDy=0;entryX=0.25;entryY=1;entryDx=0;entryDy=0;" parent="1" source="6vVe3XF6WJL3B-fU9FkF-140" target="6vVe3XF6WJL3B-fU9FkF-6" edge="1">
          <mxGeometry width="50" height="50" relative="1" as="geometry">
            <mxPoint x="430" y="470" as="sourcePoint" />
            <mxPoint x="480" y="420" as="targetPoint" />
          </mxGeometry>
        </mxCell>
        <mxCell id="6vVe3XF6WJL3B-fU9FkF-142" value="Address" style="ellipse;whiteSpace=wrap;html=1;fontSize=16;fontColor=#ffffff;fillColor=#60a917;strokeColor=#2D7600;" parent="1" vertex="1">
          <mxGeometry x="240" y="640" width="80" height="40" as="geometry" />
        </mxCell>
        <mxCell id="6vVe3XF6WJL3B-fU9FkF-143" value="" style="endArrow=none;html=1;rounded=0;fontSize=16;fontColor=#000000;exitX=1;exitY=0.25;exitDx=0;exitDy=0;entryX=0;entryY=1;entryDx=0;entryDy=0;" parent="1" source="6vVe3XF6WJL3B-fU9FkF-6" target="6vVe3XF6WJL3B-fU9FkF-142" edge="1">
          <mxGeometry width="50" height="50" relative="1" as="geometry">
            <mxPoint x="430" y="470" as="sourcePoint" />
            <mxPoint x="480" y="420" as="targetPoint" />
          </mxGeometry>
        </mxCell>
        <mxCell id="6vVe3XF6WJL3B-fU9FkF-144" value="Zip Code" style="ellipse;whiteSpace=wrap;html=1;fontSize=16;fontColor=#ffffff;fillColor=#60a917;strokeColor=#2D7600;" parent="1" vertex="1">
          <mxGeometry x="15" y="640" width="90" height="40" as="geometry" />
        </mxCell>
        <mxCell id="6vVe3XF6WJL3B-fU9FkF-145" value="" style="endArrow=none;html=1;rounded=0;fontSize=16;fontColor=#000000;exitX=1;exitY=1;exitDx=0;exitDy=0;entryX=0;entryY=0.25;entryDx=0;entryDy=0;" parent="1" source="6vVe3XF6WJL3B-fU9FkF-144" target="6vVe3XF6WJL3B-fU9FkF-6" edge="1">
          <mxGeometry width="50" height="50" relative="1" as="geometry">
            <mxPoint x="430" y="470" as="sourcePoint" />
            <mxPoint x="480" y="420" as="targetPoint" />
          </mxGeometry>
        </mxCell>
        <mxCell id="6vVe3XF6WJL3B-fU9FkF-146" value="Customer ID" style="ellipse;whiteSpace=wrap;html=1;fontSize=16;fontColor=#ffffff;fillColor=#60a917;strokeColor=#2D7600;" parent="1" vertex="1">
          <mxGeometry x="10" y="690" width="90" height="50" as="geometry" />
        </mxCell>
        <mxCell id="6vVe3XF6WJL3B-fU9FkF-147" value="" style="endArrow=none;html=1;rounded=0;fontSize=16;fontColor=#000000;exitX=1;exitY=0.5;exitDx=0;exitDy=0;entryX=0;entryY=1;entryDx=0;entryDy=0;" parent="1" source="6vVe3XF6WJL3B-fU9FkF-146" target="6vVe3XF6WJL3B-fU9FkF-6" edge="1">
          <mxGeometry width="50" height="50" relative="1" as="geometry">
            <mxPoint x="430" y="470" as="sourcePoint" />
            <mxPoint x="480" y="420" as="targetPoint" />
          </mxGeometry>
        </mxCell>
        <mxCell id="6vVe3XF6WJL3B-fU9FkF-148" value="Order ID" style="ellipse;whiteSpace=wrap;html=1;fontSize=16;fontColor=#ffffff;fillColor=#60a917;strokeColor=#2D7600;" parent="1" vertex="1">
          <mxGeometry x="175" y="750" width="80" height="50" as="geometry" />
        </mxCell>
        <mxCell id="6vVe3XF6WJL3B-fU9FkF-149" value="" style="endArrow=none;html=1;rounded=0;fontSize=16;fontColor=#000000;exitX=0.5;exitY=0;exitDx=0;exitDy=0;entryX=0.75;entryY=1;entryDx=0;entryDy=0;" parent="1" source="6vVe3XF6WJL3B-fU9FkF-148" target="6vVe3XF6WJL3B-fU9FkF-6" edge="1">
          <mxGeometry width="50" height="50" relative="1" as="geometry">
            <mxPoint x="430" y="470" as="sourcePoint" />
            <mxPoint x="480" y="420" as="targetPoint" />
          </mxGeometry>
        </mxCell>
      </root>
    </mxGraphModel>
  </diagram>
</mxfile>
